# xmcd
#
# Track frame offsets:
#  150
#  13579
#  25700
#  41554
#  52165
#  66024
#  77925
#  91866
#  104017
#  115809
#  128685
#  138286
#
# Disc length: 1962 seconds
#
# Revision: 0
# Processed by: cddbd v1.5.2PL0 Copyright (c) Steve Scherf et al.
# Submitted via: AltoMP3_Maker 3.0
#
DISCID=9b07a80c
DTITLE=Lo-Lite - 12 Picks
DYEAR=1900
DGENRE=
TTITLE0=Do The Right Thing
TTITLE1=Nothing You Can Do
TTITLE2=Gone Gone Daddy
TTITLE3=6 Or Seven
TTITLE4=Fade Out
TTITLE5=Night Train
TTITLE6=Bad Fingered
TTITLE7=Silver
TTITLE8=Lo-Culture
TTITLE9=Decompression Blues
TTITLE10=New Day
TTITLE11=Second Remedy
EXTD=
EXTT0=
EXTT1=
EXTT2=
EXTT3=
EXTT4=
EXTT5=
EXTT6=
EXTT7=
EXTT8=
EXTT9=
EXTT10=
EXTT11=
PLAYORDER=
